<mxfile host="app.diagrams.net" modified="2021-06-25T16:59:48.929Z" agent="5.0 (Macintosh; Intel Mac OS X 10_15_7) AppleWebKit/537.36 (KHTML, like Gecko) Chrome/81.0.4044.138 Safari/537.36" etag="RGSt3xOnEjBSTwO0KqjY" version="14.8.1" type="github">
  <diagram name="Page-1" id="e7e014a7-5840-1c2e-5031-d8a46d1fe8dd">
    <mxGraphModel dx="1165" dy="748" grid="1" gridSize="10" guides="1" tooltips="1" connect="1" arrows="1" fold="1" page="1" pageScale="1" pageWidth="1169" pageHeight="826" background="none" math="0" shadow="0">
      <root>
        <mxCell id="0" />
        <mxCell id="1" parent="0" />
        <mxCell id="2" value="钉钉" style="swimlane;whiteSpace=wrap" parent="1" vertex="1">
          <mxGeometry x="80" y="130" width="135.5" height="568" as="geometry" />
        </mxCell>
        <mxCell id="5" value="" style="ellipse;shape=startState;fillColor=#000000;strokeColor=#ff0000;" parent="2" vertex="1">
          <mxGeometry x="52" y="40" width="30" height="30" as="geometry" />
        </mxCell>
        <mxCell id="6" value="" style="edgeStyle=elbowEdgeStyle;elbow=horizontal;verticalAlign=bottom;endArrow=open;endSize=8;strokeColor=#FF0000;endFill=1;rounded=0" parent="2" source="5" edge="1">
          <mxGeometry x="52" y="40" as="geometry">
            <mxPoint x="67" y="110" as="targetPoint" />
          </mxGeometry>
        </mxCell>
        <mxCell id="cK3x9-zTk0lmCpWn8AXt-41" style="edgeStyle=orthogonalEdgeStyle;rounded=0;orthogonalLoop=1;jettySize=auto;html=1;" edge="1" parent="2" source="7" target="10">
          <mxGeometry relative="1" as="geometry" />
        </mxCell>
        <mxCell id="7" value="用户访问" style="" parent="2" vertex="1">
          <mxGeometry x="12" y="110" width="110" height="50" as="geometry" />
        </mxCell>
        <mxCell id="10" value="钉群" style="" parent="2" vertex="1">
          <mxGeometry x="12" y="325" width="110" height="50" as="geometry" />
        </mxCell>
        <mxCell id="4" value="alsc-sre-robot" style="swimlane;whiteSpace=wrap" parent="1" vertex="1">
          <mxGeometry x="401" y="130" width="199" height="570" as="geometry" />
        </mxCell>
        <mxCell id="cK3x9-zTk0lmCpWn8AXt-64" style="edgeStyle=orthogonalEdgeStyle;rounded=0;orthogonalLoop=1;jettySize=auto;html=1;entryX=0.5;entryY=0;entryDx=0;entryDy=0;" edge="1" parent="4" target="cK3x9-zTk0lmCpWn8AXt-69">
          <mxGeometry relative="1" as="geometry">
            <mxPoint x="75" y="150" as="sourcePoint" />
          </mxGeometry>
        </mxCell>
        <mxCell id="cK3x9-zTk0lmCpWn8AXt-65" value="工具路由" style="" vertex="1" parent="4">
          <mxGeometry x="59" y="420" width="110" height="50" as="geometry" />
        </mxCell>
        <mxCell id="cK3x9-zTk0lmCpWn8AXt-70" value="" style="edgeStyle=orthogonalEdgeStyle;rounded=0;orthogonalLoop=1;jettySize=auto;html=1;" edge="1" parent="4" source="cK3x9-zTk0lmCpWn8AXt-69" target="cK3x9-zTk0lmCpWn8AXt-65">
          <mxGeometry relative="1" as="geometry" />
        </mxCell>
        <mxCell id="cK3x9-zTk0lmCpWn8AXt-69" value="工具路由" style="rhombus;fillColor=#ffffc0;strokeColor=#ff0000;" vertex="1" parent="4">
          <mxGeometry x="69" y="243" width="80" height="40" as="geometry" />
        </mxCell>
        <mxCell id="cK3x9-zTk0lmCpWn8AXt-73" value="否" style="edgeStyle=orthogonalEdgeStyle;rounded=0;orthogonalLoop=1;jettySize=auto;html=1;" edge="1" parent="4" source="cK3x9-zTk0lmCpWn8AXt-69">
          <mxGeometry relative="1" as="geometry">
            <mxPoint x="49" y="320" as="targetPoint" />
          </mxGeometry>
        </mxCell>
        <mxCell id="cK3x9-zTk0lmCpWn8AXt-74" value="消息路由" style="" vertex="1" parent="4">
          <mxGeometry x="19" y="320" width="71" height="40" as="geometry" />
        </mxCell>
        <mxCell id="20" value="" style="endArrow=open;strokeColor=#FF0000;endFill=1;rounded=0;entryX=0;entryY=0.5;entryDx=0;entryDy=0;" parent="1" source="10" target="cK3x9-zTk0lmCpWn8AXt-46" edge="1">
          <mxGeometry relative="1" as="geometry">
            <Array as="points">
              <mxPoint x="240" y="480" />
              <mxPoint x="240" y="265" />
            </Array>
          </mxGeometry>
        </mxCell>
        <mxCell id="cK3x9-zTk0lmCpWn8AXt-42" value="机器人工厂" style="swimlane;whiteSpace=wrap" vertex="1" parent="1">
          <mxGeometry x="950" y="140" width="465.5" height="570" as="geometry">
            <mxRectangle x="270" y="128" width="90" height="23" as="alternateBounds" />
          </mxGeometry>
        </mxCell>
        <mxCell id="3" value="alsc-sre-robot" style="swimlane;whiteSpace=wrap" parent="cK3x9-zTk0lmCpWn8AXt-42" vertex="1">
          <mxGeometry x="185.5" width="280" height="570" as="geometry" />
        </mxCell>
        <mxCell id="14" value="" style="edgeStyle=elbowEdgeStyle;elbow=horizontal;verticalAlign=bottom;endArrow=open;endSize=8;strokeColor=#FF0000;endFill=1;rounded=0" parent="3" target="15" edge="1">
          <mxGeometry x="40" y="20" as="geometry">
            <mxPoint x="55" y="90" as="targetPoint" />
            <mxPoint x="75" y="70" as="sourcePoint" />
          </mxGeometry>
        </mxCell>
        <mxCell id="15" value="idle" style="" parent="3" vertex="1">
          <mxGeometry x="20" y="110" width="110" height="50" as="geometry" />
        </mxCell>
        <mxCell id="16" value="check for &#xa;new commands" style="" parent="3" vertex="1">
          <mxGeometry x="20" y="220" width="110" height="50" as="geometry" />
        </mxCell>
        <mxCell id="17" value="" style="endArrow=open;strokeColor=#FF0000;endFill=1;rounded=0" parent="3" source="15" target="16" edge="1">
          <mxGeometry relative="1" as="geometry" />
        </mxCell>
        <mxCell id="18" value="command queue" style="" parent="3" vertex="1">
          <mxGeometry x="20" y="325" width="110" height="50" as="geometry" />
        </mxCell>
        <mxCell id="19" value="" style="endArrow=open;strokeColor=#FF0000;endFill=1;rounded=0" parent="3" source="16" target="18" edge="1">
          <mxGeometry relative="1" as="geometry" />
        </mxCell>
        <mxCell id="21" value="queue empty" style="rhombus;fillColor=#ffffc0;strokeColor=#ff0000;" parent="3" vertex="1">
          <mxGeometry x="150" y="225" width="80" height="40" as="geometry" />
        </mxCell>
        <mxCell id="23" value="no" style="edgeStyle=elbowEdgeStyle;elbow=horizontal;align=left;verticalAlign=top;endArrow=open;endSize=8;strokeColor=#FF0000;endFill=1;rounded=0" parent="3" source="21" target="30" edge="1">
          <mxGeometry x="-1" relative="1" as="geometry">
            <mxPoint x="190" y="305" as="targetPoint" />
          </mxGeometry>
        </mxCell>
        <mxCell id="24" value="" style="endArrow=open;strokeColor=#FF0000;endFill=1;rounded=0" parent="3" source="16" target="21" edge="1">
          <mxGeometry relative="1" as="geometry" />
        </mxCell>
        <mxCell id="30" value="dispatch&#xa;command&#xa;worker thread" style="" parent="3" vertex="1">
          <mxGeometry x="140" y="325" width="110" height="50" as="geometry" />
        </mxCell>
        <mxCell id="31" value="critical&#xa;section" style="shape=note;whiteSpace=wrap;size=17" parent="3" vertex="1">
          <mxGeometry x="105" y="490" width="100" height="50" as="geometry" />
        </mxCell>
        <mxCell id="32" value="" style="endArrow=none;strokeColor=#FF0000;endFill=0;rounded=0;dashed=1" parent="3" source="18" target="31" edge="1">
          <mxGeometry relative="1" as="geometry" />
        </mxCell>
        <mxCell id="cK3x9-zTk0lmCpWn8AXt-50" value="" style="endArrow=open;strokeColor=#FF0000;endFill=1;rounded=0;entryX=0;entryY=0.5;entryDx=0;entryDy=0;" edge="1" parent="1">
          <mxGeometry relative="1" as="geometry">
            <mxPoint x="360" y="480" as="sourcePoint" />
            <mxPoint x="425.5" y="260" as="targetPoint" />
            <Array as="points">
              <mxPoint x="410" y="480" />
              <mxPoint x="410" y="260" />
            </Array>
          </mxGeometry>
        </mxCell>
        <mxCell id="cK3x9-zTk0lmCpWn8AXt-57" value="工厂" style="swimlane;whiteSpace=wrap" vertex="1" parent="1">
          <mxGeometry x="215.5" y="130" width="185.5" height="568" as="geometry" />
        </mxCell>
        <mxCell id="cK3x9-zTk0lmCpWn8AXt-46" value="意图识别" style="" vertex="1" parent="cK3x9-zTk0lmCpWn8AXt-57">
          <mxGeometry x="36.5" y="110" width="110" height="50" as="geometry" />
        </mxCell>
        <mxCell id="cK3x9-zTk0lmCpWn8AXt-45" style="edgeStyle=orthogonalEdgeStyle;rounded=0;orthogonalLoop=1;jettySize=auto;html=1;" edge="1" parent="cK3x9-zTk0lmCpWn8AXt-57" target="cK3x9-zTk0lmCpWn8AXt-47">
          <mxGeometry relative="1" as="geometry">
            <mxPoint x="86.5" y="160" as="sourcePoint" />
          </mxGeometry>
        </mxCell>
        <mxCell id="cK3x9-zTk0lmCpWn8AXt-47" value="调用hsf服务" style="" vertex="1" parent="cK3x9-zTk0lmCpWn8AXt-57">
          <mxGeometry x="31.5" y="325" width="110" height="50" as="geometry" />
        </mxCell>
        <mxCell id="cK3x9-zTk0lmCpWn8AXt-63" value="根据钉群/消息ID" style="" vertex="1" parent="1">
          <mxGeometry x="420" y="240" width="110" height="50" as="geometry" />
        </mxCell>
        <mxCell id="cK3x9-zTk0lmCpWn8AXt-66" value="alsc-sre-robot" style="swimlane;whiteSpace=wrap" vertex="1" parent="1">
          <mxGeometry x="600" y="130" width="310" height="570" as="geometry" />
        </mxCell>
        <mxCell id="cK3x9-zTk0lmCpWn8AXt-83" value="" style="edgeStyle=orthogonalEdgeStyle;rounded=0;orthogonalLoop=1;jettySize=auto;html=1;" edge="1" parent="cK3x9-zTk0lmCpWn8AXt-66" source="cK3x9-zTk0lmCpWn8AXt-78" target="cK3x9-zTk0lmCpWn8AXt-82">
          <mxGeometry relative="1" as="geometry" />
        </mxCell>
        <mxCell id="cK3x9-zTk0lmCpWn8AXt-78" value="命令解析" style="" vertex="1" parent="cK3x9-zTk0lmCpWn8AXt-66">
          <mxGeometry x="50" y="50" width="110" height="50" as="geometry" />
        </mxCell>
        <mxCell id="cK3x9-zTk0lmCpWn8AXt-85" value="" style="edgeStyle=orthogonalEdgeStyle;rounded=0;orthogonalLoop=1;jettySize=auto;html=1;" edge="1" parent="cK3x9-zTk0lmCpWn8AXt-66" source="cK3x9-zTk0lmCpWn8AXt-82">
          <mxGeometry relative="1" as="geometry">
            <mxPoint x="105" y="220" as="targetPoint" />
          </mxGeometry>
        </mxCell>
        <mxCell id="cK3x9-zTk0lmCpWn8AXt-82" value="查询到工具" style="rhombus;fillColor=#ffffc0;strokeColor=#ff0000;" vertex="1" parent="cK3x9-zTk0lmCpWn8AXt-66">
          <mxGeometry x="65" y="120" width="80" height="40" as="geometry" />
        </mxCell>
        <mxCell id="cK3x9-zTk0lmCpWn8AXt-86" value="是" style="edgeStyle=orthogonalEdgeStyle;rounded=0;orthogonalLoop=1;jettySize=auto;html=1;" edge="1" parent="cK3x9-zTk0lmCpWn8AXt-66" target="cK3x9-zTk0lmCpWn8AXt-82">
          <mxGeometry relative="1" as="geometry">
            <mxPoint x="105" y="200" as="sourcePoint" />
          </mxGeometry>
        </mxCell>
        <mxCell id="cK3x9-zTk0lmCpWn8AXt-88" value="" style="edgeStyle=orthogonalEdgeStyle;rounded=0;orthogonalLoop=1;jettySize=auto;html=1;" edge="1" parent="cK3x9-zTk0lmCpWn8AXt-66" source="cK3x9-zTk0lmCpWn8AXt-87" target="cK3x9-zTk0lmCpWn8AXt-82">
          <mxGeometry relative="1" as="geometry">
            <Array as="points">
              <mxPoint x="105" y="200" />
              <mxPoint x="105" y="200" />
            </Array>
          </mxGeometry>
        </mxCell>
        <mxCell id="cK3x9-zTk0lmCpWn8AXt-87" value="查询工具" style="" vertex="1" parent="cK3x9-zTk0lmCpWn8AXt-66">
          <mxGeometry x="50" y="206" width="110" height="50" as="geometry" />
        </mxCell>
        <mxCell id="cK3x9-zTk0lmCpWn8AXt-71" value="是" style="text;html=1;align=center;verticalAlign=middle;resizable=0;points=[];autosize=1;strokeColor=none;" vertex="1" parent="1">
          <mxGeometry x="475" y="420" width="30" height="20" as="geometry" />
        </mxCell>
        <mxCell id="cK3x9-zTk0lmCpWn8AXt-76" value="" style="edgeStyle=orthogonalEdgeStyle;rounded=0;orthogonalLoop=1;jettySize=auto;html=1;" edge="1" parent="1">
          <mxGeometry relative="1" as="geometry">
            <mxPoint x="444.48275862068976" y="490.0000000000001" as="sourcePoint" />
            <mxPoint x="129" y="510" as="targetPoint" />
            <Array as="points">
              <mxPoint x="444" y="560" />
              <mxPoint x="444" y="580" />
              <mxPoint x="129" y="580" />
            </Array>
          </mxGeometry>
        </mxCell>
        <mxCell id="cK3x9-zTk0lmCpWn8AXt-79" value="" style="endArrow=open;strokeColor=#FF0000;endFill=1;rounded=0;" edge="1" parent="1">
          <mxGeometry relative="1" as="geometry">
            <mxPoint x="567" y="580" as="sourcePoint" />
            <mxPoint x="647" y="210" as="targetPoint" />
            <Array as="points">
              <mxPoint x="617" y="580" />
              <mxPoint x="617" y="210" />
            </Array>
          </mxGeometry>
        </mxCell>
      </root>
    </mxGraphModel>
  </diagram>
</mxfile>
